<mxfile host="app.diagrams.net" modified="2024-07-29T23:52:02.643Z" agent="Mozilla/5.0 (Macintosh; Intel Mac OS X 10_15_7) AppleWebKit/537.36 (KHTML, like Gecko) Chrome/126.0.0.0 Safari/537.36" version="24.0.1" etag="vv4BZwiYeG1T7li5OO4X" type="github">
  <diagram name="페이지-1" id="8lVbc5D6GeFjd0BZYBcg">
    <mxGraphModel>
      <root>
        <mxCell id="0" />
        <mxCell id="1" parent="0" />
      </root>
    </mxGraphModel>
  </diagram>
</mxfile>
